# xmcd
#
# Track frame offsets: 
#        182
#        10480
#        21470
#        32960
#        43987
#        55375
#        68995
#        80445
#        90605
#        100647
#        111220
#        121390
#        132070
#        142365
#        152875
#        163277
#        174630
#        184340
#        195105
#        206262
#        217845
#        227772
#        238545
#        251175
#
# Disc length: 3515 seconds
#
# Revision: 0
# Processed by: cddbd v1.4PL0 Copyright (c) Steve Scherf et al.
# Submitted via: ExactAudioCopy v0.95a3
#
DISCID=5d0db918
DTITLE=Willie Mitchell - Soilid Soul and On Top
DYEAR=1900
DGENRE=R&B
TTITLE0=Prayer Meetin'
TTITLE1=Grazing In The Grass
TTITLE2=Windy
TTITLE3=Sunrise Serenade
TTITLE4=The Horse
TTITLE5=Groovin'
TTITLE6=San-Ho-Zay
TTITLE7=Up Hard
TTITLE8=Monkey Jump
TTITLE9=Strawberry Soul
TTITLE10=Hideaway
TTITLE11=Willie Wam
TTITLE12=Take Five
TTITLE13=Poppin'
TTITLE14=Canadian Sunset
TTITLE15=Ain't Too Proud To Beg
TTITLE16=Louie, Louie
TTITLE17=Big Power House
TTITLE18=30-60-909
TTITLE19=Who's Making Love
TTITLE20=I Say A Little Prayer
TTITLE21=Come See About Me
TTITLE22=I Wish It Would Rain
TTITLE23=Sunshine Of Your Love
EXTD=
EXTT0=
EXTT1=
EXTT2=
EXTT3=
EXTT4=
EXTT5=
EXTT6=
EXTT7=
EXTT8=
EXTT9=
EXTT10=
EXTT11=
EXTT12=
EXTT13=
EXTT14=
EXTT15=
EXTT16=
EXTT17=
EXTT18=
EXTT19=
EXTT20=
EXTT21=
EXTT22=
EXTT23=
PLAYORDER=
